<?xml version="1.0" encoding="utf-8"?>
<!-- Generator: Adobe Illustrator 29.6.1, SVG Export Plug-In . SVG Version: 9.03 Build 0)  -->
<svg version="1.1" xmlns="http://www.w3.org/2000/svg" xmlns:xlink="http://www.w3.org/1999/xlink" x="0px" y="0px"
	 viewBox="0 0 196.1 196.1" style="enable-background:new 0 0 196.1 196.1;" xml:space="preserve">
<style type="text/css">
	._x005B_Default_x005D_{fill:#FFFFFF;stroke:#000000;stroke-miterlimit:10;}
	.Drop_x0020_Shadow{fill:none;}
	.Thick_x0020_Blue_x0020_Neon{fill:none;stroke:#0073BB;stroke-width:10;stroke-linecap:round;stroke-linejoin:round;}
	.Illuminating_x0020_Aqua{fill:url(#SVGID_1_);stroke:#FFFFFF;stroke-width:0.25;stroke-miterlimit:1;}
	
		.Black_x0020_Highlight{fill:url(#SVGID_00000062193030529231526170000008714685800549334177_);stroke:#FFFFFF;stroke-width:0.3629;stroke-miterlimit:1;}
	.Bugaboo_GS{fill-rule:evenodd;clip-rule:evenodd;fill:#FFDC00;}
	.st0{fill:url(#SVGID_00000114782786941941044460000000601641174793609643_);}
	.st1{fill:#FFFFFF;}
	.st2{fill:none;stroke:#FFFFFF;stroke-width:0.9799;stroke-linecap:round;stroke-linejoin:round;stroke-miterlimit:10;}
	.st3{fill:url(#SVGID_00000127020152183965491140000007758526682911564442_);}
	.st4{fill:url(#SVGID_00000086691741488541463760000010692666702835643066_);}
	.st5{fill:url(#SVGID_00000174559882775970270350000016685239897968961170_);}
	.st6{fill:url(#SVGID_00000163046383521237017290000006378580889094086830_);}
	.st7{fill:url(#SVGID_00000057131809018324933780000009648117917114366911_);}
	.st8{fill:url(#SVGID_00000114039140438126567890000004162068526461835705_);}
	.st9{fill:url(#SVGID_00000179636664911948285120000007029882112847553427_);}
	.st10{fill:url(#SVGID_00000062890985270429406340000012420268397091479177_);}
	.st11{fill:#30D5C8;}
	.st12{fill:#009DE0;}
</style>
<linearGradient id="SVGID_1_" gradientUnits="userSpaceOnUse" x1="449.6383" y1="102.9788" x2="449.6383" y2="101.9788">
	<stop  offset="0" style="stop-color:#1D59F3"/>
	<stop  offset="0.618" style="stop-color:#2D65ED"/>
	<stop  offset="0.6292" style="stop-color:#3864F2"/>
	<stop  offset="0.9831" style="stop-color:#00DCFB"/>
</linearGradient>
<linearGradient id="SVGID_00000102505515416988182470000014334672565965535877_" gradientUnits="userSpaceOnUse" x1="449.6383" y1="102.9788" x2="449.6383" y2="101.9788">
	<stop  offset="0" style="stop-color:#060606"/>
	<stop  offset="0.618" style="stop-color:#000000"/>
	<stop  offset="0.6292" style="stop-color:#000000"/>
	<stop  offset="0.9831" style="stop-color:#000000"/>
</linearGradient>
<g id="BACKGROUND">
</g>
<g id="OBJECTS">
	<g>
		<g>
			<g>
				
					<linearGradient id="SVGID_00000109749379086987286380000017026656916575486880_" gradientUnits="userSpaceOnUse" x1="24.9732" y1="100.2824" x2="185.2905" y2="100.2824">
					<stop  offset="0" style="stop-color:#30D5C8"/>
					<stop  offset="1" style="stop-color:#009DE0"/>
				</linearGradient>
				<path style="fill:url(#SVGID_00000109749379086987286380000017026656916575486880_);" d="M185.3,100.7c0-7.2-3.8-13.6-9.6-17.7
					c0.6-2,1-4.1,1-6.3c0-12.4-11.2-22.5-24.9-22.5c-1.1,0-2.3,0.1-3.4,0.2c-1.7-10.9-12.1-19.3-24.7-19.3c-8.3,0-15.6,3.7-20.1,9.3
					c-6.4-7.7-18.1-10.5-28.7-5.9C67.2,41.8,61.9,48,60,55c-7.7-1.5-16.3,1-22.7,7.4c-7.7,7.7-9.8,18.7-6,27.3
					c-5.7,6.1-8,15.5-5.2,24.7c4,13.2,16.8,21,28.7,17.4c0.4-0.1,0.7-0.3,1.1-0.4c2.6,7.8,9.5,14.2,18.8,16.3
					c8.8,2,17.5-0.5,23.2-5.9c2.5,1.5,5.2,2.7,8.3,3.4c3.5,0.8,7,0.9,10.4,0.3c9,4.4,14.6,11.1,17,19.9h10.9l-2.2-17.7
					c1.7,0.3,3.4,0.5,5.2,0.5c13.8,0,24.9-10.1,24.9-22.5c0-1.7-0.2-3.4-0.6-5C179.8,117,185.3,109.5,185.3,100.7z"/>
				<path class="st1" d="M75.8,72c0,1.7-1.4,3.1-3.1,3.1s-3.1-1.4-3.1-3.1c0-1.7,1.4-3.1,3.1-3.1S75.8,70.3,75.8,72z"/>
				<path class="st1" d="M97.9,105.1c0,1.7-1.4,3.1-3.1,3.1c-1.7,0-3.1-1.4-3.1-3.1c0-1.7,1.4-3.1,3.1-3.1
					C96.6,102,97.9,103.4,97.9,105.1z"/>
				<path class="st1" d="M137.4,127.7c0,1.7-1.4,3.1-3.1,3.1c-1.7,0-3.1-1.4-3.1-3.1c0-1.7,1.4-3.1,3.1-3.1
					C136,124.6,137.4,126,137.4,127.7z"/>
				<path class="st1" d="M138,84.1c0,1.7-1.4,3.1-3.1,3.1c-1.7,0-3.1-1.4-3.1-3.1c0-1.7,1.4-3.1,3.1-3.1C136.6,81,138,82.4,138,84.1
					z"/>
				<path class="st1" d="M57.5,89.7c0,3.7-3,6.8-6.8,6.8c-3.7,0-6.8-3-6.8-6.8c0-3.7,3-6.8,6.8-6.8C54.5,82.9,57.5,85.9,57.5,89.7z"
					/>
				<path class="st1" d="M110.3,80c0,3.7-3,6.8-6.8,6.8c-3.7,0-6.8-3-6.8-6.8c0-3.7,3-6.8,6.8-6.8C107.3,73.2,110.3,76.3,110.3,80z"
					/>
				<path class="st1" d="M154,108.2c0,3.7-3,6.8-6.8,6.8c-3.7,0-6.8-3-6.8-6.8c0-3.7,3-6.8,6.8-6.8C150.9,101.4,154,104.5,154,108.2
					z"/>
				<path class="st1" d="M104.7,124.6c0,3.7-3,6.8-6.8,6.8c-3.7,0-6.8-3-6.8-6.8c0-3.7,3-6.8,6.8-6.8
					C101.7,117.9,104.7,120.9,104.7,124.6z"/>
				<path class="st1" d="M77.6,101.7c1.9,2.1,1.6,5.4-0.5,7.2c-2.1,1.9-5.4,1.6-7.2-0.5c-1.9-2.1-1.6-5.4,0.5-7.2
					C72.5,99.4,75.7,99.6,77.6,101.7z"/>
				<path class="st1" d="M138.8,65.3c1.9,2.1,1.6,5.4-0.5,7.2c-2.1,1.9-5.4,1.6-7.2-0.5c-1.9-2.1-1.6-5.4,0.5-7.2
					C133.7,63,136.9,63.2,138.8,65.3z"/>
				<path class="st1" d="M163.3,79.5c1.9,2.1,1.6,5.4-0.5,7.2c-2.1,1.9-5.4,1.6-7.2-0.5c-1.9-2.1-1.6-5.4,0.5-7.2
					C158.2,77.2,161.5,77.4,163.3,79.5z"/>
				<path class="st1" d="M126.4,95.2c1.9,2.1,1.6,5.4-0.5,7.2c-2.1,1.9-5.4,1.6-7.2-0.5c-1.9-2.1-1.6-5.4,0.5-7.2
					C121.3,92.8,124.5,93.1,126.4,95.2z"/>
				<polyline class="st2" points="54.9,131.7 73.7,105.1 91.8,105.1 				"/>
				<line class="st2" x1="60" y1="55" x2="72.7" y2="72"/>
				<line class="st2" x1="31.3" y1="89.7" x2="43.9" y2="89.7"/>
				<polyline class="st2" points="103.6,44.4 103.6,79.7 122.5,98.6 				"/>
				<line class="st2" x1="116.6" y1="145.5" x2="134.3" y2="127.7"/>
				<line class="st2" x1="97.9" y1="141.8" x2="97.9" y2="124.6"/>
				<polyline class="st2" points="148.4,54.5 134.9,67.9 134.9,82.9 				"/>
				<line class="st2" x1="171.7" y1="120.7" x2="147.2" y2="108.2"/>
				<line class="st2" x1="175.7" y1="83" x2="159.5" y2="83"/>
			</g>
			
				<linearGradient id="SVGID_00000132797031593415878920000013169592294514156709_" gradientUnits="userSpaceOnUse" x1="159.4545" y1="26.8897" x2="159.4545" y2="43.442">
				<stop  offset="0" style="stop-color:#45C4D2"/>
				<stop  offset="1" style="stop-color:#0490D2"/>
			</linearGradient>
			<path style="fill:url(#SVGID_00000132797031593415878920000013169592294514156709_);" d="M167.7,35.2c-1.4-1.1-2.8-1.7-4.1-2.1
				c0,0,0,0,0,0c-1-0.3-1.7-1-2-2c0,0,0,0,0,0c-0.4-1.4-1-2.8-2.1-4.1c-1.1,1.4-1.7,2.8-2.1,4.1c0,0,0,0,0,0c-0.3,1-1,1.7-2,2
				c0,0,0,0,0,0c-1.4,0.4-2.8,1-4.1,2.1c1.4,1.1,2.8,1.7,4.1,2.1c0,0,0,0,0,0c1,0.3,1.7,1,2,2c0,0,0,0,0,0c0.4,1.4,1,2.8,2.1,4.1
				c1.1-1.4,1.7-2.8,2.1-4.1c0,0,0,0,0,0c0.3-1,1-1.7,2-2c0,0,0,0,0,0C165,36.9,166.4,36.3,167.7,35.2z"/>
			
				<linearGradient id="SVGID_00000057145041982708100320000007502579136191701894_" gradientUnits="userSpaceOnUse" x1="16.6971" y1="116.3707" x2="16.6971" y2="132.923">
				<stop  offset="0" style="stop-color:#45C4D2"/>
				<stop  offset="1" style="stop-color:#0490D2"/>
			</linearGradient>
			<path style="fill:url(#SVGID_00000057145041982708100320000007502579136191701894_);" d="M25,124.6c-1.4-1.1-2.8-1.7-4.1-2.1
				c0,0,0,0,0,0c-1-0.3-1.7-1-2-2c0,0,0,0,0,0c-0.4-1.4-1-2.8-2.1-4.1c-1.1,1.4-1.7,2.8-2.1,4.1c0,0,0,0,0,0c-0.3,1-1,1.7-2,2
				c0,0,0,0,0,0c-1.4,0.4-2.8,1-4.1,2.1c1.4,1.1,2.8,1.7,4.1,2.1c0,0,0,0,0,0c1,0.3,1.7,1,2,2c0,0,0,0,0,0c0.4,1.4,1,2.8,2.1,4.1
				c1.1-1.4,1.7-2.8,2.1-4.1c0,0,0,0,0,0c0.3-1,1-1.7,2-2c0,0,0,0,0,0C22.2,126.3,23.6,125.8,25,124.6z"/>
			
				<linearGradient id="SVGID_00000009557032600144754100000007435698797813476505_" gradientUnits="userSpaceOnUse" x1="174.0703" y1="46.7184" x2="174.0703" y2="54.9612">
				<stop  offset="0" style="stop-color:#45C4D2"/>
				<stop  offset="1" style="stop-color:#0490D2"/>
			</linearGradient>
			<path style="fill:url(#SVGID_00000009557032600144754100000007435698797813476505_);" d="M178.2,50.8c-0.7-0.6-1.4-0.8-2.1-1
				c0,0,0,0,0,0c-0.5-0.1-0.9-0.5-1-1c0,0,0,0,0,0c-0.2-0.7-0.5-1.4-1-2.1c-0.6,0.7-0.8,1.4-1,2.1c0,0,0,0,0,0c-0.1,0.5-0.5,0.9-1,1
				c0,0,0,0,0,0c-0.7,0.2-1.4,0.5-2.1,1.1c0.7,0.6,1.4,0.8,2.1,1.1c0,0,0,0,0,0c0.5,0.1,0.9,0.5,1,1c0,0,0,0,0,0
				c0.2,0.7,0.5,1.4,1.1,2.1c0.6-0.7,0.8-1.4,1.1-2.1c0,0,0,0,0,0c0.1-0.5,0.5-0.9,1-1c0,0,0,0,0,0
				C176.8,51.7,177.5,51.4,178.2,50.8z"/>
			
				<linearGradient id="SVGID_00000061453925599440344760000015592746715658622374_" gradientUnits="userSpaceOnUse" x1="31.3393" y1="137.6343" x2="31.3393" y2="145.8774">
				<stop  offset="0" style="stop-color:#45C4D2"/>
				<stop  offset="1" style="stop-color:#0490D2"/>
			</linearGradient>
			<path style="fill:url(#SVGID_00000061453925599440344760000015592746715658622374_);" d="M35.5,141.8c-0.7-0.6-1.4-0.8-2.1-1
				c0,0,0,0,0,0c-0.5-0.1-0.9-0.5-1-1c0,0,0,0,0,0c-0.2-0.7-0.5-1.4-1-2.1c-0.6,0.7-0.8,1.4-1,2.1c0,0,0,0,0,0c-0.1,0.5-0.5,0.9-1,1
				c0,0,0,0,0,0c-0.7,0.2-1.4,0.5-2.1,1.1c0.7,0.6,1.4,0.8,2.1,1.1c0,0,0,0,0,0c0.5,0.1,0.9,0.5,1,1c0,0,0,0,0,0
				c0.2,0.7,0.5,1.4,1.1,2.1c0.6-0.7,0.8-1.4,1.1-2.1c0,0,0,0,0,0c0.1-0.5,0.5-0.9,1-1c0,0,0,0,0,0
				C34.1,142.6,34.8,142.3,35.5,141.8z"/>
		</g>
	</g>
</g>
</svg>
