<?xml version="1.0" encoding="utf-8"?>
<!-- Generator: Adobe Illustrator 29.6.1, SVG Export Plug-In . SVG Version: 9.03 Build 0)  -->
<svg version="1.1" xmlns="http://www.w3.org/2000/svg" xmlns:xlink="http://www.w3.org/1999/xlink" x="0px" y="0px"
	 viewBox="0 0 196.1 196.1" style="enable-background:new 0 0 196.1 196.1;" xml:space="preserve">
<style type="text/css">
	._x005B_Default_x005D_{fill:#FFFFFF;stroke:#000000;stroke-miterlimit:10;}
	.Drop_x0020_Shadow{fill:none;}
	.Thick_x0020_Blue_x0020_Neon{fill:none;stroke:#0073BB;stroke-width:10;stroke-linecap:round;stroke-linejoin:round;}
	.Illuminating_x0020_Aqua{fill:url(#SVGID_1_);stroke:#FFFFFF;stroke-width:0.25;stroke-miterlimit:1;}
	
		.Black_x0020_Highlight{fill:url(#SVGID_00000128446829145312161240000013701031977266791602_);stroke:#FFFFFF;stroke-width:0.3629;stroke-miterlimit:1;}
	.Bugaboo_GS{fill-rule:evenodd;clip-rule:evenodd;fill:#FFDC00;}
	.st0{fill:url(#SVGID_00000168109052395379699880000011579386131719879099_);}
	.st1{fill:#FFFFFF;}
	.st2{fill:none;stroke:#FFFFFF;stroke-width:0.9799;stroke-linecap:round;stroke-linejoin:round;stroke-miterlimit:10;}
	.st3{fill:url(#SVGID_00000105419017901101855190000016201452020656622483_);}
	.st4{fill:url(#SVGID_00000130640472106312397450000016016460724447840134_);}
	.st5{fill:url(#SVGID_00000075127121733900521610000009540647852638271388_);}
	.st6{fill:url(#SVGID_00000020399221222535846970000004106936879588347044_);}
	.st7{fill:url(#SVGID_00000059281714589720894450000007070660245080023963_);}
	.st8{fill:url(#SVGID_00000110439041488880704760000012891878383713108920_);}
	.st9{fill:url(#SVGID_00000134946649245722999850000004185746793856998058_);}
	.st10{fill:url(#SVGID_00000132078245602878591430000017452201052860094337_);}
	.st11{fill:#30D5C8;}
	.st12{fill:#009DE0;}
</style>
<linearGradient id="SVGID_1_" gradientUnits="userSpaceOnUse" x1="240.2767" y1="102.9788" x2="240.2767" y2="101.9788">
	<stop  offset="0" style="stop-color:#1D59F3"/>
	<stop  offset="0.618" style="stop-color:#2D65ED"/>
	<stop  offset="0.6292" style="stop-color:#3864F2"/>
	<stop  offset="0.9831" style="stop-color:#00DCFB"/>
</linearGradient>
<linearGradient id="SVGID_00000015318958869874389130000000975065645312461728_" gradientUnits="userSpaceOnUse" x1="240.2767" y1="102.9788" x2="240.2767" y2="101.9788">
	<stop  offset="0" style="stop-color:#060606"/>
	<stop  offset="0.618" style="stop-color:#000000"/>
	<stop  offset="0.6292" style="stop-color:#000000"/>
	<stop  offset="0.9831" style="stop-color:#000000"/>
</linearGradient>
<g id="BACKGROUND">
</g>
<g id="OBJECTS">
	<g>
		
			<linearGradient id="SVGID_00000098929342710546738560000009900018517144234899_" gradientUnits="userSpaceOnUse" x1="153.5468" y1="35.5131" x2="75.1867" y2="120.5673">
			<stop  offset="0" style="stop-color:#30D5C8"/>
			<stop  offset="1" style="stop-color:#009DE0"/>
		</linearGradient>
		<path style="fill:url(#SVGID_00000098929342710546738560000009900018517144234899_);" d="M155.5,72.8c-3.9,1.1-6.2,5.1-5.2,9
			c1.3,4.6,1.9,9.5,1.9,14.3c0,14.6-5.7,28.3-16,38.6c-10.3,10.3-24,16-38.6,16c-14.6,0-28.3-5.7-38.6-16s-16-24-16-38.6
			c0-14.6,5.7-28.3,16-38.6c10.3-10.3,24-16,38.6-16c7.3,0,14.4,1.4,21,4.2c3.7,1.6,8.1-0.2,9.6-3.9c1.6-3.7-0.2-8.1-3.9-9.6
			c-8.5-3.5-17.5-5.3-26.7-5.3c-9.3,0-18.4,1.8-27,5.4c-8.2,3.5-15.7,8.5-22,14.8c-6.4,6.4-11.4,13.8-14.8,22
			c-3.6,8.5-5.4,17.6-5.4,27c0,9.3,1.8,18.4,5.4,27c3.5,8.2,8.5,15.7,14.8,22c6.4,6.4,13.8,11.4,22,14.8c8.5,3.6,17.6,5.4,27,5.4
			c9.3,0,18.4-1.8,27-5.4c8.2-3.5,15.7-8.5,22-14.8c6.4-6.4,11.4-13.8,14.8-22c3.6-8.5,5.4-17.6,5.4-27c0-6.2-0.8-12.3-2.4-18.2
			C163.5,74.1,159.4,71.7,155.5,72.8z"/>
		
			<linearGradient id="SVGID_00000042717890629803850270000012413926504822953919_" gradientUnits="userSpaceOnUse" x1="149.415" y1="31.7066" x2="71.0549" y2="116.7608">
			<stop  offset="0" style="stop-color:#30D5C8"/>
			<stop  offset="1" style="stop-color:#009DE0"/>
		</linearGradient>
		<path style="fill:url(#SVGID_00000042717890629803850270000012413926504822953919_);" d="M74.7,87.6c-2.9-2.9-7.5-2.9-10.4,0
			c-2.9,2.9-2.9,7.5,0,10.4l24.6,24.6c1.4,1.4,3.3,2.2,5.2,2.2c0.1,0,0.3,0,0.4,0c2.1-0.1,4-1.1,5.3-2.7l52.5-65.6
			c2.5-3.2,2-7.8-1.2-10.3c-3.2-2.5-7.8-2-10.3,1.2l-47.3,59.2L74.7,87.6z"/>
	</g>
</g>
</svg>
